<?xml version="1.0" encoding="UTF-8" standalone="no"?>
<!-- Created with Inkscape (http://www.inkscape.org/) -->

<svg
   width="170.82295mm"
   height="178.88341mm"
   viewBox="0 0 170.82295 178.88341"
   version="1.1"
   id="svg3628"
   inkscape:version="1.1.1 (c3084ef, 2021-09-22)"
   sodipodi:docname="olan-cirlces.svg"
   xmlns:inkscape="http://www.inkscape.org/namespaces/inkscape"
   xmlns:sodipodi="http://sodipodi.sourceforge.net/DTD/sodipodi-0.dtd"
   xmlns="http://www.w3.org/2000/svg"
   xmlns:svg="http://www.w3.org/2000/svg">
  <sodipodi:namedview
     id="namedview3630"
     pagecolor="#ffffff"
     bordercolor="#666666"
     borderopacity="1.0"
     inkscape:pageshadow="2"
     inkscape:pageopacity="0.0"
     inkscape:pagecheckerboard="0"
     inkscape:document-units="mm"
     showgrid="false"
     fit-margin-top="0"
     fit-margin-left="0"
     fit-margin-right="0"
     fit-margin-bottom="0"
     inkscape:zoom="0.61825196"
     inkscape:cx="322.68397"
     inkscape:cy="337.24114"
     inkscape:window-width="1312"
     inkscape:window-height="969"
     inkscape:window-x="0"
     inkscape:window-y="25"
     inkscape:window-maximized="0"
     inkscape:current-layer="layer1" />
  <defs
     id="defs3625" />
  <g
     inkscape:label="Layer 1"
     inkscape:groupmode="layer"
     id="layer1"
     transform="translate(-19.651213,-58.844322)">
    <g
       id="g1752-0-7"
       style="fill:#000000;fill-opacity:1;stroke:none"
       transform="translate(185.08436,-555.73593)"
       inkscape:export-filename="/Users/ahmedgaber/olan-circles.png"
       inkscape:export-xdpi="17.36994"
       inkscape:export-ydpi="17.36994">
      <path
         id="path1236-5-9-7"
         style="fill:#000000;fill-opacity:1;stroke:none;stroke-width:5.29167;stroke-miterlimit:4;stroke-dasharray:none;stroke-opacity:1"
         d="m -80.941406,639.69922 c -14.692081,0.20592 -29.161584,6.41144 -39.527924,16.80984 -2.23939,2.15556 -4.6096,4.4473 -5.61465,7.4675 -0.8995,3.75411 1.75266,8.06292 5.64202,8.62938 2.4565,0.66121 5.10097,-0.44478 6.71901,-2.3249 3.99099,-3.56176 7.63137,-7.65454 12.41763,-10.19202 6.516556,-3.79588 14.093616,-5.71188 21.577474,-5.71083 7.137695,-0.0287 14.297084,1.77174 20.467081,5.38866 4.24502,2.43073 8.101524,5.59425 11.424827,9.26831 2.689292,2.98452 5.110875,6.45985 7.024406,10.07989 3.67326,6.83267 5.965785,14.64664 6.089771,22.42622 0.197754,5.12139 -0.121412,10.3246 -1.379801,15.27514 -3.220142,12.77088 -11.600377,24.29975 -22.987369,31.05434 -6.421377,3.86681 -13.960122,5.85555 -21.456381,5.57847 -4.576288,-0.0109 -9.192012,-0.74383 -13.483864,-2.38348 -2.793626,-1.01066 -5.404183,-2.28962 -7.968874,-3.8548 -12.87414,-7.90316 -21.74431,-22.13846 -23.1353,-37.2267 -0.36636,-4.16617 -0.29749,-8.41107 0.10085,-12.48528 0.37021,-3.70697 1.25021,-7.33826 2.33049,-10.8952 0.62374,-2.26808 0.70828,-4.92356 -0.80979,-6.87223 -2.21862,-3.1785 -7.16436,-4.12881 -10.25732,-1.6776 -1.75476,1.28991 -2.5974,3.39076 -3.14331,5.4246 -3.19562,9.94028 -3.81358,20.62359 -2.35319,30.93358 1.80034,12.15666 7.01957,23.86315 15.26029,33.02557 7.37039,8.34845 16.84582,15.03602 27.5876,18.21884 5.815409,1.79591 11.925536,2.67957 18.014167,2.38999 6.524738,-0.0586 13.090665,-1.16494 19.10228,-3.76226 15.206306,-6.2162 27.538313,-18.78982 33.956653,-33.86013 7.962584,-18.51144 7.00881,-40.6083 -2.570232,-58.34174 -6.151541,-11.43174 -15.750695,-21.12556 -27.464044,-26.82652 -7.935354,-3.80978 -16.768154,-5.67461 -25.5625,-5.55664 z" />
      <path
         id="path1214-4-5-9"
         style="fill:#000000;fill-opacity:1;stroke:none;stroke-width:5.29167;stroke-miterlimit:4;stroke-dasharray:none;stroke-opacity:1"
         d="m -79.150391,614.58984 c -6.075293,-0.0671 -12.210458,0.18925 -18.123716,1.69148 -11.816363,2.64062 -23.120263,7.71282 -32.756553,15.07103 -18.84802,14.24766 -31.39397,36.32526 -34.52403,59.6951 -2.50649,18.33431 0.35009,37.44199 8.57912,54.05154 9.67946,19.71629 26.96941,35.6956 47.64159,43.26429 8.05205,2.96259 16.55562,4.80225 25.141009,5.09337 6.440683,0.0453 12.933592,-0.0939 19.250229,-1.47541 10.402057,-2.16036 20.313207,-6.46197 29.208808,-12.2388 5.821348,-3.88752 11.150434,-8.5134 15.835127,-13.71261 1.185698,-1.35113 2.416954,-2.91382 2.361698,-4.81499 0.107401,-2.85322 -1.878074,-5.74596 -4.75,-6.30078 -2.267979,-0.55792 -4.783053,0.33865 -6.202514,2.19044 -4.445162,4.67232 -9.227892,9.0303 -14.635232,12.54144 -8.650328,5.75462 -18.709248,9.49535 -28.951317,10.85992 -11.608884,1.54161 -23.592141,-0.10967 -34.508678,-4.41065 -12.80913,-5.10756 -23.99471,-14.00369 -32.16864,-25.03789 -4.65164,-6.25604 -8.39119,-13.4175 -10.9211,-20.8733 -6.37782,-18.69597 -5.59699,-39.51992 2.05962,-57.67635 5.0542,-12.01816 13.31039,-22.88974 23.64622,-30.86119 6.86561,-5.33021 14.76118,-9.26319 23.065761,-11.79134 5.071341,-1.54607 10.384567,-2.60101 15.669327,-2.75361 3.854418,-0.15921 7.820472,-0.10796 11.606709,0.10745 4.367051,0.36957 8.751386,1.38825 12.9375,2.66211 8.066668,2.54091 15.629766,6.50407 22.299377,11.68591 4.884713,3.86899 9.23057,8.42077 13.092998,13.25033 6.433407,8.0879 11.355674,17.45201 14.135269,27.38767 1.6015282,5.63247 2.8010433,11.5646 2.9112396,17.45021 0.1865112,5.91471 0.1650082,11.88531 -0.9095868,17.72393 -1.0859398,5.96254 -2.7391658,11.8501 -5.1248268,17.42773 -0.604834,1.60093 -1.564252,3.20192 -1.29057,4.98024 0.289399,2.91404 2.792911,5.61101 5.8157635,5.60605 2.3890461,0.25332 4.8691458,-1.09514 5.8400878,-3.31656 1.1871567,-2.28747 2.02825747,-4.73697 2.9743892,-7.1291 3.2032578,-8.73321 4.9691397,-17.98067 5.2318568,-27.27813 0.6937266,-14.12679 -2.1238066,-28.3763 -7.9797105,-41.24076 -3.7681513,-8.38649 -8.7872268,-16.21064 -14.9075078,-23.07695 -4.60693,-5.24186 -9.696597,-10.09616 -15.447611,-14.07231 -10.970243,-7.69439 -23.83224,-12.71544 -37.134612,-14.36649 -2.97626,-0.32513 -5.976774,-0.32209 -8.967494,-0.31302 z" />
    </g>
  </g>
</svg>
